<?xml version="1.0" encoding="utf-8"?>
<!-- Generator: Adobe Illustrator 16.0.0, SVG Export Plug-In . SVG Version: 6.00 Build 0)  -->
<!DOCTYPE svg PUBLIC "-//W3C//DTD SVG 1.1//EN" "http://www.w3.org/Graphics/SVG/1.1/DTD/svg11.dtd">
<svg version="1.1" id="Layer_1" xmlns="http://www.w3.org/2000/svg" xmlns:xlink="http://www.w3.org/1999/xlink" x="0px" y="0px"
	 width="300px" height="300px" viewBox="0 0 300 300" enable-background="new 0 0 300 300" xml:space="preserve">
<g>
	<polygon fill="#E1E0E2" points="13.674,204.671 150.283,275.342 286.926,204.671 150.404,134.063 	"/>
	<polygon fill="#C6C5CB" points="286.926,204.671 286.926,215.541 150.283,286.213 150.283,275.342 	"/>
	<polygon fill="#D8D8D9" points="13.674,204.671 13.674,215.541 150.283,286.213 150.283,275.342 	"/>
	<polygon fill="#ADACB2" points="150.283,264.47 265.905,204.671 265.905,128.572 150.283,188.364 	"/>
	<polygon fill="#C6C5CB" points="34.693,128.572 34.693,204.671 150.283,264.47 150.283,188.364 	"/>
	<polygon fill="#D8D8D9" points="24.183,123.137 24.183,134.008 150.283,199.243 276.416,134.008 276.416,123.137 150.298,57.911 	
		"/>
	<polygon fill="#E1E0E2" points="24.183,123.137 150.283,188.364 276.416,123.137 150.298,57.911 	"/>
	<polygon fill="#8A8890" points="45.203,123.137 150.283,177.503 255.396,123.137 150.298,68.782 	"/>
	<polygon fill="#C6C5CB" points="55.704,128.577 150.283,79.643 150.298,68.782 45.203,123.137 	"/>
	<polyline fill="#D8D8D9" points="255.396,123.137 244.878,128.577 150.283,79.643 150.298,68.782 	"/>
	<polygon fill="#02AB95" points="118.758,259.018 118.752,182.922 55.712,150.108 55.712,226.198 66.221,231.634 66.215,166.616 
		108.249,188.356 108.249,253.582 	"/>
	<g>
		<polygon fill="#0A8779" points="118.754,182.934 118.77,259.023 129.268,253.594 129.268,188.354 		"/>
		<polygon fill="#0A8779" points="66.221,231.634 76.731,226.205 76.731,172.058 66.215,166.616 		"/>
	</g>
	<path fill="#02AB95" d="M99.928,212.279c0.002-10.865-3.437-21.466-7.646-23.554c-4.208-2.087-7.65,5.095-7.65,15.961v25.551
		l15.301,7.927L99.928,212.279z"/>
	<path fill="#40BEAC" d="M98.405,216.556c0.003-8.703-2.752-17.19-6.123-18.863c-3.37-1.672-6.126,4.08-6.126,12.784v20.461
		l12.254,6.349L98.405,216.556z"/>
	<g>
		<path fill="#4B7DC0" d="M145.048,212.257v16.762l-10.717-5.438l0.011-15.638c0.002-2.687,3.221-4.386,5.845-3.08l0,0
			C143.187,206.352,145.048,209.185,145.048,212.257z"/>
		<path fill="#4B7DC0" d="M50.461,163.335v16.764l-10.716-5.437l0.011-15.64c0.001-2.686,3.222-4.386,5.845-3.081l0,0
			C48.6,157.43,50.461,160.264,50.461,163.335z"/>
		<path fill="#4B7DC0" d="M160.811,209.65v16.763l10.715-5.541l-0.01-15.54c-0.004-2.685-3.222-4.38-5.845-3.077l0,0
			C162.671,203.744,160.811,206.576,160.811,209.65z"/>
		<path fill="#4B7DC0" d="M181.826,198.778v16.764l10.719-5.541l-0.011-15.537c-0.001-2.686-3.223-4.383-5.843-3.079l0,0
			C183.689,192.874,181.826,195.707,181.826,198.778z"/>
		<path fill="#4B7DC0" d="M202.848,187.91v16.761l10.717-5.538l-0.01-15.54c-0.002-2.687-3.224-4.384-5.846-3.079l0,0
			C204.708,182.004,202.848,184.835,202.848,187.91z"/>
		<path fill="#4B7DC0" d="M223.867,177.036v16.762l10.716-5.539l-0.01-15.537c-0.003-2.686-3.223-4.384-5.845-3.079l0,0
			C225.728,171.131,223.867,173.966,223.867,177.036z"/>
		<path fill="#4B7DC0" d="M244.888,166.165v16.764l10.714-5.539l-0.008-15.54c-0.002-2.687-3.224-4.383-5.845-3.079l0,0
			C246.748,160.262,244.888,163.093,244.888,166.165z"/>
	</g>
	<polygon fill="#E1E0E2" points="69.392,233.511 64.111,236.115 95.592,252.476 100.811,249.762 	"/>
	<polygon fill="#C6C5CB" points="64.111,236.115 64.111,241.574 95.583,257.85 95.592,252.476 	"/>
	<polygon fill="#E1E0E2" points="64.157,241.633 58.871,244.234 90.352,260.597 95.577,257.884 	"/>
	<polygon fill="#C6C5CB" points="58.871,244.234 58.871,249.741 90.343,266.017 90.352,260.597 	"/>
	<polygon fill="#ADACB2" points="124.143,237.082 124.137,244.961 117.077,248.909 117.065,256.802 124.124,252.849 
		124.131,252.784 124.131,252.859 131.182,248.906 131.182,233.13 	"/>
	<path fill="#C6C5CB" d="M216.003,99.237v-0.035h-0.001c0.082-8.655-6.206-17.302-18.89-23.864
		c-25.413-13.143-67.278-13.143-93.035,0C91.19,81.916,84.689,90.59,84.596,99.264v26.849c-0.097,8.663,6.2,17.328,18.917,23.905
		c25.444,13.161,67.309,13.161,93.033,0c12.856-6.577,19.35-15.242,19.457-23.905h0.001v-0.008
		C216.003,126.102,216.003,99.242,216.003,99.237z"/>
	<path fill="#E1E0E2" d="M103.512,123.164c-25.445-13.159-25.19-34.681,0.565-47.824c25.756-13.144,67.622-13.142,93.035,0
		c25.411,13.143,25.155,34.665-0.567,47.824C170.82,136.324,128.956,136.324,103.512,123.164z"/>
	<path fill="#02AB95" d="M207.766,98.238c-0.031,7.626-5.719,15.262-17.026,21.042c-22.501,11.514-59.127,11.514-81.386,0
		c-10.941-5.657-16.448-13.077-16.543-20.533c-0.01-0.132-0.01-0.264-0.01-0.385c0-28.434,25.739-51.49,57.489-51.49
		c31.592,0,57.235,22.84,57.467,51.085C207.766,98.049,207.766,98.144,207.766,98.238z"/>
	<path fill="#40BEAC" d="M190.193,89.81c-0.023,5.878-4.407,11.763-13.125,16.219c-17.342,8.875-45.575,8.875-62.733,0
		c-8.433-4.361-12.679-10.08-12.751-15.828c-0.007-0.103-0.007-0.203-0.007-0.298c0-21.915,19.839-39.688,44.313-39.688
		c24.352,0,44.119,17.605,44.297,39.377C190.193,89.666,190.193,89.737,190.193,89.81z"/>
	<path fill="#05675B" d="M150.298,34.245l-2.702,18.592c-0.003,0.355,0.256,0.712,0.78,0.983c1.045,0.54,2.767,0.54,3.825,0
		c0.529-0.271,0.795-0.627,0.801-0.983l0,0l0,0L150.298,34.245z"/>
	<g>
		<path fill="#FED322" d="M145.665,26.946c0-3.688,3.102-6.725,7.097-7.137c-0.547-0.102-1.113-0.159-1.694-0.159
			c-4.497,0-8.144,3.267-8.144,7.296c0,4.03,3.647,7.297,8.144,7.297c0.581,0,1.147-0.057,1.694-0.159
			C148.767,33.671,145.665,30.636,145.665,26.946z"/>
		<polygon fill="#FED322" points="151.203,20.444 154.437,24.48 159.723,22.974 156.434,26.975 159.666,31.014 154.402,29.449 
			151.115,33.451 151.149,28.482 145.884,26.917 151.17,25.412 		"/>
	</g>
	<polygon fill="#C6C5CB" points="150.283,188.364 150.283,199.243 276.416,134.008 276.416,123.137 	"/>
</g>
</svg>
