<?xml version="1.0" encoding="utf-8"?>
<!-- Generator: Adobe Illustrator 16.0.0, SVG Export Plug-In . SVG Version: 6.00 Build 0)  -->
<!DOCTYPE svg PUBLIC "-//W3C//DTD SVG 1.1//EN" "http://www.w3.org/Graphics/SVG/1.1/DTD/svg11.dtd">
<svg version="1.1" id="Layer_1" xmlns="http://www.w3.org/2000/svg" xmlns:xlink="http://www.w3.org/1999/xlink" x="0px" y="0px"
	 width="250px" height="250px" viewBox="0 0 250 250" enable-background="new 0 0 250 250" xml:space="preserve">
<g>
	<rect x="10.51" y="13.409" fill="#0F887A" width="228.98" height="223.181"/>
	<path fill="#F1F0F2" d="M230.041,231.355l5.053-0.002L235,18.26l-1.426,0.001v-0.114H15.96v0.115l-1.053,0.002l0.09,207.58h-0.09
		v5.51h0.094v0.002l2.525-0.002h212.515V231.355z M20.049,225.844L19.96,23.657h209.991l0.088,202.187H20.049z"/>
	<g>
		<g>
			<path fill="#F1F0F2" d="M178.008,50.922c9.09,11.576,14.527,26.179,14.527,42.069c0,37.546-30.281,67.979-67.633,67.979
				c-37.351,0-67.632-30.434-67.632-67.979c0-16.767,6.054-32.106,16.064-43.959c-22.041,15.709-36.404,41.3-36.404,70.223
				c0,47.784,39.159,86.52,87.464,86.52c48.305,0,87.465-38.736,87.465-86.52C211.859,91.466,198.596,66.751,178.008,50.922z"/>
			<g>
				<polyline fill="#F1F0F2" points="143.125,73.784 134.619,85.744 147.398,77.771 149.303,72.06 				"/>
				<polygon fill="#F1F0F2" points="170.578,86.838 134.232,86.838 122.996,55.34 113.307,86.87 77.62,86.87 109.281,104.23 
					109.348,103.978 109.51,104.765 95.133,138.551 123.873,116.695 125.18,116.931 153.354,138.133 138.914,104.2 				"/>
				<polyline fill="#F1F0F2" points="104.455,74.294 112.965,86.253 100.184,78.28 98.282,72.569 				"/>
				<polyline fill="#F1F0F2" points="94.249,109.4 108.961,105.015 97.243,114.283 90.795,114.447 				"/>
				<polyline fill="#F1F0F2" points="154.934,108.345 140.221,103.963 151.941,113.23 158.385,113.394 				"/>
				<polyline fill="#F1F0F2" points="127.426,131.824 124.506,117.755 121.363,131.734 124.305,137.053 				"/>
			</g>
		</g>
		<polygon fill="#F1F0F2" points="205.887,217.992 207.893,204.936 209.9,217.992 217.332,217.992 221.139,183.699 214.875,183.699 
			213.221,198.586 211.047,184.426 211.158,183.699 204.629,183.699 204.74,184.426 202.498,199.016 200.799,183.699 
			194.535,183.699 198.342,217.992 		"/>
		<g>
			<rect x="28.862" y="185.713" fill="#F1F0F2" width="6.77" height="34.293"/>
			<rect x="41.487" y="185.715" fill="#F1F0F2" width="6.77" height="34.293"/>
			<polygon fill="#F1F0F2" points="47.202,217.594 40.889,220.262 29.529,188.287 35.839,185.619 			"/>
		</g>
	</g>
</g>
</svg>
