<?xml version="1.0" encoding="utf-8"?>
<!-- Generator: Adobe Illustrator 16.0.0, SVG Export Plug-In . SVG Version: 6.00 Build 0)  -->
<!DOCTYPE svg PUBLIC "-//W3C//DTD SVG 1.1//EN" "http://www.w3.org/Graphics/SVG/1.1/DTD/svg11.dtd">
<svg version="1.1" id="Layer_1" xmlns="http://www.w3.org/2000/svg" xmlns:xlink="http://www.w3.org/1999/xlink" x="0px" y="0px"
	 width="250px" height="250px" viewBox="0 0 250 250" enable-background="new 0 0 250 250" xml:space="preserve">
<g>
	<path fill="#40BEAC" d="M225.486,12.912v178.003L50.521,212.638l-25.919,3.215V37.846c0-6.884,2.902-13.115,7.591-17.631
		c4.695-4.511,11.172-7.303,18.328-7.303H225.486z"/>
	<path fill="#02AB95" d="M50.521,12.912v199.726l-25.919,3.215V37.846c0-6.884,2.902-13.115,7.591-17.631
		C36.888,15.703,43.365,12.912,50.521,12.912z"/>
	<path fill="#0A8779" d="M61.056,240.788H50.522c-7.157,0-13.633-2.791-18.329-7.303c-4.689-4.519-7.591-10.753-7.591-17.637
		c0-13.769,11.607-24.934,25.92-24.934h155.528h19.437v49.873H98.2"/>
	<path fill="#E6E6E5" d="M206.051,190.915v32.655H39.32v-30.215c3.39-1.565,7.191-2.44,11.201-2.44H206.051L206.051,190.915z"/>
	<path fill="#CDCCCC" d="M206.051,190.915v8.56H50.522c-4.011,0-7.812,0.876-11.202,2.439v-8.559c3.39-1.565,7.19-2.44,11.202-2.44
		H206.051L206.051,190.915z"/>
	<path fill="#E1E0E2" d="M205.124,150.946V51.891c-11.191,0-20.26-8.725-20.26-19.489H92.075c0,10.764-9.071,19.489-20.259,19.489
		v99.055c11.188,0,20.259,8.724,20.259,19.486h92.789C184.864,159.67,193.932,150.946,205.124,150.946z"/>
	<g>
		<polygon fill="#F7B238" points="154.551,64.763 160.5,76.362 173.806,78.221 164.179,87.25 166.45,99.999 154.551,93.979 
			142.649,99.999 144.922,87.25 135.294,78.221 148.6,76.362 		"/>
		<path fill="#F7B238" d="M153.397,118.354c-19.57,0-35.436-15.262-35.436-34.088c0-10.473,4.91-19.84,12.635-26.094
			c-22.5,2.444-39.986,20.808-39.986,43.106c0,23.962,20.192,43.385,45.101,43.385c23.177,0,42.27-16.821,44.81-38.464
			C174.022,113.631,164.284,118.354,153.397,118.354z"/>
	</g>
</g>
</svg>
